<?xml version="1.0" encoding="UTF-8" standalone="no"?>
<!DOCTYPE svg PUBLIC "-//W3C//DTD SVG 1.1//EN"
 "http://www.w3.org/Graphics/SVG/1.1/DTD/svg11.dtd">
<!-- Generated by graphviz version 2.38.0 (20140413.2041)
 -->
<!-- Title: snakemake_dag Pages: 1 -->
<svg width="430pt" height="404pt"
 viewBox="0.00 0.00 429.50 404.00" xmlns="http://www.w3.org/2000/svg" xmlns:xlink="http://www.w3.org/1999/xlink">
<g id="graph0" class="graph" transform="scale(1 1) rotate(0) translate(4 400)">
<title>snakemake_dag</title>
<polygon fill="white" stroke="none" points="-4,4 -4,-400 425.5,-400 425.5,4 -4,4"/>
<!-- 0 -->
<g id="node1" class="node"><title>0</title>
<path fill="none" stroke="#afd856" stroke-width="2" stroke-dasharray="5,2" d="M63,-396C63,-396 22,-396 22,-396 16,-396 10,-390 10,-384 10,-384 10,-372 10,-372 10,-366 16,-360 22,-360 22,-360 63,-360 63,-360 69,-360 75,-366 75,-372 75,-372 75,-384 75,-384 75,-390 69,-396 63,-396"/>
<text text-anchor="middle" x="42.5" y="-381" font-family="sans" font-size="10.00">bwa_map</text>
<text text-anchor="middle" x="42.5" y="-370" font-family="sans" font-size="10.00">sample: B</text>
</g>
<!-- 1 -->
<g id="node2" class="node"><title>1</title>
<path fill="none" stroke="#56d8a9" stroke-width="2" stroke-dasharray="5,2" d="M73,-324C73,-324 12,-324 12,-324 6,-324 0,-318 0,-312 0,-312 0,-300 0,-300 0,-294 6,-288 12,-288 12,-288 73,-288 73,-288 79,-288 85,-294 85,-300 85,-300 85,-312 85,-312 85,-318 79,-324 73,-324"/>
<text text-anchor="middle" x="42.5" y="-303.5" font-family="sans" font-size="10.00">samtools_sort</text>
</g>
<!-- 0&#45;&gt;1 -->
<g id="edge1" class="edge"><title>0&#45;&gt;1</title>
<path fill="none" stroke="grey" stroke-width="2" d="M42.5,-359.697C42.5,-351.983 42.5,-342.712 42.5,-334.112"/>
<polygon fill="grey" stroke="grey" stroke-width="2" points="46.0001,-334.104 42.5,-324.104 39.0001,-334.104 46.0001,-334.104"/>
</g>
<!-- 4 -->
<g id="node5" class="node"><title>4</title>
<path fill="none" stroke="#d8ac56" stroke-width="2" stroke-dasharray="5,2" d="M216,-180C216,-180 165,-180 165,-180 159,-180 153,-174 153,-168 153,-168 153,-156 153,-156 153,-150 159,-144 165,-144 165,-144 216,-144 216,-144 222,-144 228,-150 228,-156 228,-156 228,-168 228,-168 228,-174 222,-180 216,-180"/>
<text text-anchor="middle" x="190.5" y="-159.5" font-family="sans" font-size="10.00">bcftools_call</text>
</g>
<!-- 1&#45;&gt;4 -->
<g id="edge3" class="edge"><title>1&#45;&gt;4</title>
<path fill="none" stroke="grey" stroke-width="2" d="M31.8554,-287.917C21.3627,-268.656 8.97142,-237.259 24.5,-216 51.3645,-179.222 104.04,-167.372 142.879,-163.849"/>
<polygon fill="grey" stroke="grey" stroke-width="2" points="143.222,-167.333 152.931,-163.092 142.697,-160.353 143.222,-167.333"/>
</g>
<!-- 9 -->
<g id="node10" class="node"><title>9</title>
<path fill="none" stroke="#d85656" stroke-width="2" stroke-dasharray="5,2" d="M113.5,-252C113.5,-252 45.5,-252 45.5,-252 39.5,-252 33.5,-246 33.5,-240 33.5,-240 33.5,-228 33.5,-228 33.5,-222 39.5,-216 45.5,-216 45.5,-216 113.5,-216 113.5,-216 119.5,-216 125.5,-222 125.5,-228 125.5,-228 125.5,-240 125.5,-240 125.5,-246 119.5,-252 113.5,-252"/>
<text text-anchor="middle" x="79.5" y="-231.5" font-family="sans" font-size="10.00">samtools_index</text>
</g>
<!-- 1&#45;&gt;9 -->
<g id="edge12" class="edge"><title>1&#45;&gt;9</title>
<path fill="none" stroke="grey" stroke-width="2" d="M51.6461,-287.697C55.9026,-279.644 61.0558,-269.894 65.7664,-260.982"/>
<polygon fill="grey" stroke="grey" stroke-width="2" points="68.8803,-262.581 70.4591,-252.104 62.6917,-259.31 68.8803,-262.581"/>
</g>
<!-- 2 -->
<g id="node3" class="node"><title>2</title>
<path fill="none" stroke="#59d856" stroke-width="2" stroke-dasharray="5,2" d="M205.5,-108C205.5,-108 175.5,-108 175.5,-108 169.5,-108 163.5,-102 163.5,-96 163.5,-96 163.5,-84 163.5,-84 163.5,-78 169.5,-72 175.5,-72 175.5,-72 205.5,-72 205.5,-72 211.5,-72 217.5,-78 217.5,-84 217.5,-84 217.5,-96 217.5,-96 217.5,-102 211.5,-108 205.5,-108"/>
<text text-anchor="middle" x="190.5" y="-87.5" font-family="sans" font-size="10.00">report</text>
</g>
<!-- 11 -->
<g id="node12" class="node"><title>11</title>
<path fill="none" stroke="#56a9d8" stroke-width="2" stroke-dasharray="5,2" d="M205.5,-36C205.5,-36 175.5,-36 175.5,-36 169.5,-36 163.5,-30 163.5,-24 163.5,-24 163.5,-12 163.5,-12 163.5,-6 169.5,-0 175.5,-0 175.5,-0 205.5,-0 205.5,-0 211.5,-0 217.5,-6 217.5,-12 217.5,-12 217.5,-24 217.5,-24 217.5,-30 211.5,-36 205.5,-36"/>
<text text-anchor="middle" x="190.5" y="-15.5" font-family="sans" font-size="10.00">all</text>
</g>
<!-- 2&#45;&gt;11 -->
<g id="edge14" class="edge"><title>2&#45;&gt;11</title>
<path fill="none" stroke="grey" stroke-width="2" d="M190.5,-71.6966C190.5,-63.9827 190.5,-54.7125 190.5,-46.1124"/>
<polygon fill="grey" stroke="grey" stroke-width="2" points="194,-46.1043 190.5,-36.1043 187,-46.1044 194,-46.1043"/>
</g>
<!-- 3 -->
<g id="node4" class="node"><title>3</title>
<path fill="none" stroke="#afd856" stroke-width="2" stroke-dasharray="5,2" d="M229,-396C229,-396 188,-396 188,-396 182,-396 176,-390 176,-384 176,-384 176,-372 176,-372 176,-366 182,-360 188,-360 188,-360 229,-360 229,-360 235,-360 241,-366 241,-372 241,-372 241,-384 241,-384 241,-390 235,-396 229,-396"/>
<text text-anchor="middle" x="208.5" y="-381" font-family="sans" font-size="10.00">bwa_map</text>
<text text-anchor="middle" x="208.5" y="-370" font-family="sans" font-size="10.00">sample: A</text>
</g>
<!-- 7 -->
<g id="node8" class="node"><title>7</title>
<path fill="none" stroke="#56d8a9" stroke-width="2" stroke-dasharray="5,2" d="M239,-324C239,-324 178,-324 178,-324 172,-324 166,-318 166,-312 166,-312 166,-300 166,-300 166,-294 172,-288 178,-288 178,-288 239,-288 239,-288 245,-288 251,-294 251,-300 251,-300 251,-312 251,-312 251,-318 245,-324 239,-324"/>
<text text-anchor="middle" x="208.5" y="-303.5" font-family="sans" font-size="10.00">samtools_sort</text>
</g>
<!-- 3&#45;&gt;7 -->
<g id="edge10" class="edge"><title>3&#45;&gt;7</title>
<path fill="none" stroke="grey" stroke-width="2" d="M208.5,-359.697C208.5,-351.983 208.5,-342.712 208.5,-334.112"/>
<polygon fill="grey" stroke="grey" stroke-width="2" points="212,-334.104 208.5,-324.104 205,-334.104 212,-334.104"/>
</g>
<!-- 4&#45;&gt;2 -->
<g id="edge2" class="edge"><title>4&#45;&gt;2</title>
<path fill="none" stroke="grey" stroke-width="2" d="M190.5,-143.697C190.5,-135.983 190.5,-126.712 190.5,-118.112"/>
<polygon fill="grey" stroke="grey" stroke-width="2" points="194,-118.104 190.5,-108.104 187,-118.104 194,-118.104"/>
</g>
<!-- 5 -->
<g id="node6" class="node"><title>5</title>
<path fill="none" stroke="#afd856" stroke-width="2" stroke-dasharray="5,2" d="M340,-396C340,-396 299,-396 299,-396 293,-396 287,-390 287,-384 287,-384 287,-372 287,-372 287,-366 293,-360 299,-360 299,-360 340,-360 340,-360 346,-360 352,-366 352,-372 352,-372 352,-384 352,-384 352,-390 346,-396 340,-396"/>
<text text-anchor="middle" x="319.5" y="-381" font-family="sans" font-size="10.00">bwa_map</text>
<text text-anchor="middle" x="319.5" y="-370" font-family="sans" font-size="10.00">sample: C</text>
</g>
<!-- 10 -->
<g id="node11" class="node"><title>10</title>
<path fill="none" stroke="#56d8a9" stroke-width="2" stroke-dasharray="5,2" d="M350,-324C350,-324 289,-324 289,-324 283,-324 277,-318 277,-312 277,-312 277,-300 277,-300 277,-294 283,-288 289,-288 289,-288 350,-288 350,-288 356,-288 362,-294 362,-300 362,-300 362,-312 362,-312 362,-318 356,-324 350,-324"/>
<text text-anchor="middle" x="319.5" y="-303.5" font-family="sans" font-size="10.00">samtools_sort</text>
</g>
<!-- 5&#45;&gt;10 -->
<g id="edge13" class="edge"><title>5&#45;&gt;10</title>
<path fill="none" stroke="grey" stroke-width="2" d="M319.5,-359.697C319.5,-351.983 319.5,-342.712 319.5,-334.112"/>
<polygon fill="grey" stroke="grey" stroke-width="2" points="323,-334.104 319.5,-324.104 316,-334.104 323,-334.104"/>
</g>
<!-- 6 -->
<g id="node7" class="node"><title>6</title>
<path fill="none" stroke="#d85656" stroke-width="2" stroke-dasharray="5,2" d="M261.5,-252C261.5,-252 193.5,-252 193.5,-252 187.5,-252 181.5,-246 181.5,-240 181.5,-240 181.5,-228 181.5,-228 181.5,-222 187.5,-216 193.5,-216 193.5,-216 261.5,-216 261.5,-216 267.5,-216 273.5,-222 273.5,-228 273.5,-228 273.5,-240 273.5,-240 273.5,-246 267.5,-252 261.5,-252"/>
<text text-anchor="middle" x="227.5" y="-231.5" font-family="sans" font-size="10.00">samtools_index</text>
</g>
<!-- 6&#45;&gt;4 -->
<g id="edge6" class="edge"><title>6&#45;&gt;4</title>
<path fill="none" stroke="grey" stroke-width="2" d="M218.354,-215.697C214.097,-207.644 208.944,-197.894 204.234,-188.982"/>
<polygon fill="grey" stroke="grey" stroke-width="2" points="207.308,-187.31 199.541,-180.104 201.12,-190.581 207.308,-187.31"/>
</g>
<!-- 7&#45;&gt;4 -->
<g id="edge7" class="edge"><title>7&#45;&gt;4</title>
<path fill="none" stroke="grey" stroke-width="2" d="M192.89,-287.774C185.127,-278.03 176.554,-265.184 172.5,-252 166.196,-231.499 171.677,-207.651 178.197,-189.804"/>
<polygon fill="grey" stroke="grey" stroke-width="2" points="181.528,-190.899 181.965,-180.313 175.022,-188.315 181.528,-190.899"/>
</g>
<!-- 7&#45;&gt;6 -->
<g id="edge9" class="edge"><title>7&#45;&gt;6</title>
<path fill="none" stroke="grey" stroke-width="2" d="M213.197,-287.697C215.313,-279.898 217.862,-270.509 220.218,-261.829"/>
<polygon fill="grey" stroke="grey" stroke-width="2" points="223.616,-262.672 222.857,-252.104 216.86,-260.838 223.616,-262.672"/>
</g>
<!-- 8 -->
<g id="node9" class="node"><title>8</title>
<path fill="none" stroke="#d85656" stroke-width="2" stroke-dasharray="5,2" d="M409.5,-252C409.5,-252 341.5,-252 341.5,-252 335.5,-252 329.5,-246 329.5,-240 329.5,-240 329.5,-228 329.5,-228 329.5,-222 335.5,-216 341.5,-216 341.5,-216 409.5,-216 409.5,-216 415.5,-216 421.5,-222 421.5,-228 421.5,-228 421.5,-240 421.5,-240 421.5,-246 415.5,-252 409.5,-252"/>
<text text-anchor="middle" x="375.5" y="-231.5" font-family="sans" font-size="10.00">samtools_index</text>
</g>
<!-- 8&#45;&gt;4 -->
<g id="edge4" class="edge"><title>8&#45;&gt;4</title>
<path fill="none" stroke="grey" stroke-width="2" d="M330.244,-215.876C302.207,-205.268 266.255,-191.664 237.838,-180.912"/>
<polygon fill="grey" stroke="grey" stroke-width="2" points="238.718,-177.503 228.126,-177.237 236.241,-184.05 238.718,-177.503"/>
</g>
<!-- 9&#45;&gt;4 -->
<g id="edge5" class="edge"><title>9&#45;&gt;4</title>
<path fill="none" stroke="grey" stroke-width="2" d="M106.654,-215.876C121.033,-206.808 138.881,-195.552 154.41,-185.759"/>
<polygon fill="grey" stroke="grey" stroke-width="2" points="156.65,-188.484 163.242,-180.19 152.916,-182.564 156.65,-188.484"/>
</g>
<!-- 10&#45;&gt;4 -->
<g id="edge8" class="edge"><title>10&#45;&gt;4</title>
<path fill="none" stroke="grey" stroke-width="2" d="M315.883,-287.819C311.073,-268.468 300.949,-236.989 282.5,-216 270.293,-202.112 253.526,-190.97 237.648,-182.554"/>
<polygon fill="grey" stroke="grey" stroke-width="2" points="238.948,-179.29 228.443,-177.914 235.797,-185.541 238.948,-179.29"/>
</g>
<!-- 10&#45;&gt;8 -->
<g id="edge11" class="edge"><title>10&#45;&gt;8</title>
<path fill="none" stroke="grey" stroke-width="2" d="M333.343,-287.697C339.989,-279.389 348.078,-269.277 355.387,-260.141"/>
<polygon fill="grey" stroke="grey" stroke-width="2" points="358.303,-262.099 361.817,-252.104 352.836,-257.727 358.303,-262.099"/>
</g>
</g>
</svg>
