<?xml version="1.0" encoding="UTF-8" standalone="no"?>
<!DOCTYPE svg PUBLIC "-//W3C//DTD SVG 1.1//EN"
 "http://www.w3.org/Graphics/SVG/1.1/DTD/svg11.dtd">
<!-- Generated by graphviz version 2.38.0 (20140413.2041)
 -->
<!-- Title: snakemake_dag Pages: 1 -->
<svg width="272pt" height="764pt"
 viewBox="0.00 0.00 271.50 764.00" xmlns="http://www.w3.org/2000/svg" xmlns:xlink="http://www.w3.org/1999/xlink">
<g id="graph0" class="graph" transform="scale(1 1) rotate(0) translate(4 760)">
<title>snakemake_dag</title>
<polygon fill="white" stroke="none" points="-4,4 -4,-760 267.5,-760 267.5,4 -4,4"/>
<!-- 0 -->
<g id="node1" class="node"><title>0</title>
<path fill="none" stroke="#8fd856" stroke-width="2" stroke-dasharray="5,2" d="M64,-756C64,-756 12,-756 12,-756 6,-756 0,-750 0,-744 0,-744 0,-732 0,-732 0,-726 6,-720 12,-720 12,-720 64,-720 64,-720 70,-720 76,-726 76,-732 76,-732 76,-744 76,-744 76,-750 70,-756 64,-756"/>
<text text-anchor="middle" x="38" y="-741" font-family="sans" font-size="10.00">adjustFasta</text>
<text text-anchor="middle" x="38" y="-730" font-family="sans" font-size="10.00">sample: gga</text>
</g>
<!-- 10 -->
<g id="node11" class="node"><title>10</title>
<path fill="none" stroke="#56d8b9" stroke-width="2" stroke-dasharray="5,2" d="M151.5,-684C151.5,-684 112.5,-684 112.5,-684 106.5,-684 100.5,-678 100.5,-672 100.5,-672 100.5,-660 100.5,-660 100.5,-654 106.5,-648 112.5,-648 112.5,-648 151.5,-648 151.5,-648 157.5,-648 163.5,-654 163.5,-660 163.5,-660 163.5,-672 163.5,-672 163.5,-678 157.5,-684 151.5,-684"/>
<text text-anchor="middle" x="132" y="-663.5" font-family="sans" font-size="10.00">filterFasta</text>
</g>
<!-- 0&#45;&gt;10 -->
<g id="edge9" class="edge"><title>0&#45;&gt;10</title>
<path fill="none" stroke="grey" stroke-width="2" d="M61.236,-719.697C73.1883,-710.796 87.9231,-699.823 100.847,-690.199"/>
<polygon fill="grey" stroke="grey" stroke-width="2" points="103.101,-692.884 109.031,-684.104 98.9204,-687.27 103.101,-692.884"/>
</g>
<!-- 1 -->
<g id="node2" class="node"><title>1</title>
<path fill="none" stroke="#d85656" stroke-width="2" stroke-dasharray="5,2" d="M150.5,-324C150.5,-324 113.5,-324 113.5,-324 107.5,-324 101.5,-318 101.5,-312 101.5,-312 101.5,-300 101.5,-300 101.5,-294 107.5,-288 113.5,-288 113.5,-288 150.5,-288 150.5,-288 156.5,-288 162.5,-294 162.5,-300 162.5,-300 162.5,-312 162.5,-312 162.5,-318 156.5,-324 150.5,-324"/>
<text text-anchor="middle" x="132" y="-303.5" font-family="sans" font-size="10.00">loadBlast</text>
</g>
<!-- 5 -->
<g id="node6" class="node"><title>5</title>
<path fill="none" stroke="#b6d856" stroke-width="2" stroke-dasharray="5,2" d="M148,-252C148,-252 116,-252 116,-252 110,-252 104,-246 104,-240 104,-240 104,-228 104,-228 104,-222 110,-216 116,-216 116,-216 148,-216 148,-216 154,-216 160,-222 160,-228 160,-228 160,-240 160,-240 160,-246 154,-252 148,-252"/>
<text text-anchor="middle" x="132" y="-231.5" font-family="sans" font-size="10.00">findPairs</text>
</g>
<!-- 1&#45;&gt;5 -->
<g id="edge4" class="edge"><title>1&#45;&gt;5</title>
<path fill="none" stroke="grey" stroke-width="2" d="M132,-287.697C132,-279.983 132,-270.712 132,-262.112"/>
<polygon fill="grey" stroke="grey" stroke-width="2" points="135.5,-262.104 132,-252.104 128.5,-262.104 135.5,-262.104"/>
</g>
<!-- 2 -->
<g id="node3" class="node"><title>2</title>
<path fill="none" stroke="#d87d56" stroke-width="2" stroke-dasharray="5,2" d="M157.5,-180C157.5,-180 106.5,-180 106.5,-180 100.5,-180 94.5,-174 94.5,-168 94.5,-168 94.5,-156 94.5,-156 94.5,-150 100.5,-144 106.5,-144 106.5,-144 157.5,-144 157.5,-144 163.5,-144 169.5,-150 169.5,-156 169.5,-156 169.5,-168 169.5,-168 169.5,-174 163.5,-180 157.5,-180"/>
<text text-anchor="middle" x="132" y="-159.5" font-family="sans" font-size="10.00">getPairsFiles</text>
</g>
<!-- 12 -->
<g id="node13" class="node"><title>12</title>
<path fill="none" stroke="#56a9d8" stroke-width="2" stroke-dasharray="5,2" d="M154,-108C154,-108 110,-108 110,-108 104,-108 98,-102 98,-96 98,-96 98,-84 98,-84 98,-78 104,-72 110,-72 110,-72 154,-72 154,-72 160,-72 166,-78 166,-84 166,-84 166,-96 166,-96 166,-102 160,-108 154,-108"/>
<text text-anchor="middle" x="132" y="-87.5" font-family="sans" font-size="10.00">plotResults</text>
</g>
<!-- 2&#45;&gt;12 -->
<g id="edge12" class="edge"><title>2&#45;&gt;12</title>
<path fill="none" stroke="grey" stroke-width="2" d="M132,-143.697C132,-135.983 132,-126.712 132,-118.112"/>
<polygon fill="grey" stroke="grey" stroke-width="2" points="135.5,-118.104 132,-108.104 128.5,-118.104 135.5,-118.104"/>
</g>
<!-- 3 -->
<g id="node4" class="node"><title>3</title>
<path fill="none" stroke="#8fd856" stroke-width="2" stroke-dasharray="5,2" d="M158,-756C158,-756 106,-756 106,-756 100,-756 94,-750 94,-744 94,-744 94,-732 94,-732 94,-726 100,-720 106,-720 106,-720 158,-720 158,-720 164,-720 170,-726 170,-732 170,-732 170,-744 170,-744 170,-750 164,-756 158,-756"/>
<text text-anchor="middle" x="132" y="-741" font-family="sans" font-size="10.00">adjustFasta</text>
<text text-anchor="middle" x="132" y="-730" font-family="sans" font-size="10.00">sample: aan</text>
</g>
<!-- 3&#45;&gt;10 -->
<g id="edge11" class="edge"><title>3&#45;&gt;10</title>
<path fill="none" stroke="grey" stroke-width="2" d="M132,-719.697C132,-711.983 132,-702.712 132,-694.112"/>
<polygon fill="grey" stroke="grey" stroke-width="2" points="135.5,-694.104 132,-684.104 128.5,-694.104 135.5,-694.104"/>
</g>
<!-- 4 -->
<g id="node5" class="node"><title>4</title>
<path fill="none" stroke="#d8cb56" stroke-width="2" stroke-dasharray="5,2" d="M147,-396C147,-396 117,-396 117,-396 111,-396 105,-390 105,-384 105,-384 105,-372 105,-372 105,-366 111,-360 117,-360 117,-360 147,-360 147,-360 153,-360 159,-366 159,-372 159,-372 159,-384 159,-384 159,-390 153,-396 147,-396"/>
<text text-anchor="middle" x="132" y="-375.5" font-family="sans" font-size="10.00">clearDb</text>
</g>
<!-- 4&#45;&gt;1 -->
<g id="edge1" class="edge"><title>4&#45;&gt;1</title>
<path fill="none" stroke="grey" stroke-width="2" d="M132,-359.697C132,-351.983 132,-342.712 132,-334.112"/>
<polygon fill="grey" stroke="grey" stroke-width="2" points="135.5,-334.104 132,-324.104 128.5,-334.104 135.5,-334.104"/>
</g>
<!-- 5&#45;&gt;2 -->
<g id="edge2" class="edge"><title>5&#45;&gt;2</title>
<path fill="none" stroke="grey" stroke-width="2" d="M132,-215.697C132,-207.983 132,-198.712 132,-190.112"/>
<polygon fill="grey" stroke="grey" stroke-width="2" points="135.5,-190.104 132,-180.104 128.5,-190.104 135.5,-190.104"/>
</g>
<!-- 6 -->
<g id="node7" class="node"><title>6</title>
<path fill="none" stroke="#68d856" stroke-width="2" stroke-dasharray="5,2" d="M147,-36C147,-36 117,-36 117,-36 111,-36 105,-30 105,-24 105,-24 105,-12 105,-12 105,-6 111,-0 117,-0 117,-0 147,-0 147,-0 153,-0 159,-6 159,-12 159,-12 159,-24 159,-24 159,-30 153,-36 147,-36"/>
<text text-anchor="middle" x="132" y="-15.5" font-family="sans" font-size="10.00">all</text>
</g>
<!-- 7 -->
<g id="node8" class="node"><title>7</title>
<path fill="none" stroke="#56d86b" stroke-width="2" stroke-dasharray="5,2" d="M148,-540C148,-540 116,-540 116,-540 110,-540 104,-534 104,-528 104,-528 104,-516 104,-516 104,-510 110,-504 116,-504 116,-504 148,-504 148,-504 154,-504 160,-510 160,-516 160,-516 160,-528 160,-528 160,-534 154,-540 148,-540"/>
<text text-anchor="middle" x="132" y="-519.5" font-family="sans" font-size="10.00">runBlast</text>
</g>
<!-- 9 -->
<g id="node10" class="node"><title>9</title>
<path fill="none" stroke="#d8a456" stroke-width="2" stroke-dasharray="5,2" d="M154,-468C154,-468 110,-468 110,-468 104,-468 98,-462 98,-456 98,-456 98,-444 98,-444 98,-438 104,-432 110,-432 110,-432 154,-432 154,-432 160,-432 166,-438 166,-444 166,-444 166,-456 166,-456 166,-462 160,-468 154,-468"/>
<text text-anchor="middle" x="132" y="-447.5" font-family="sans" font-size="10.00">parseBlast</text>
</g>
<!-- 7&#45;&gt;9 -->
<g id="edge8" class="edge"><title>7&#45;&gt;9</title>
<path fill="none" stroke="grey" stroke-width="2" d="M132,-503.697C132,-495.983 132,-486.712 132,-478.112"/>
<polygon fill="grey" stroke="grey" stroke-width="2" points="135.5,-478.104 132,-468.104 128.5,-478.104 135.5,-478.104"/>
</g>
<!-- 8 -->
<g id="node9" class="node"><title>8</title>
<path fill="none" stroke="#56d892" stroke-width="2" stroke-dasharray="5,2" d="M162.5,-612C162.5,-612 101.5,-612 101.5,-612 95.5,-612 89.5,-606 89.5,-600 89.5,-600 89.5,-588 89.5,-588 89.5,-582 95.5,-576 101.5,-576 101.5,-576 162.5,-576 162.5,-576 168.5,-576 174.5,-582 174.5,-588 174.5,-588 174.5,-600 174.5,-600 174.5,-606 168.5,-612 162.5,-612"/>
<text text-anchor="middle" x="132" y="-591.5" font-family="sans" font-size="10.00">createBlastDb</text>
</g>
<!-- 8&#45;&gt;7 -->
<g id="edge6" class="edge"><title>8&#45;&gt;7</title>
<path fill="none" stroke="grey" stroke-width="2" d="M132,-575.697C132,-567.983 132,-558.712 132,-550.112"/>
<polygon fill="grey" stroke="grey" stroke-width="2" points="135.5,-550.104 132,-540.104 128.5,-550.104 135.5,-550.104"/>
</g>
<!-- 9&#45;&gt;4 -->
<g id="edge3" class="edge"><title>9&#45;&gt;4</title>
<path fill="none" stroke="grey" stroke-width="2" d="M132,-431.697C132,-423.983 132,-414.712 132,-406.112"/>
<polygon fill="grey" stroke="grey" stroke-width="2" points="135.5,-406.104 132,-396.104 128.5,-406.104 135.5,-406.104"/>
</g>
<!-- 10&#45;&gt;8 -->
<g id="edge7" class="edge"><title>10&#45;&gt;8</title>
<path fill="none" stroke="grey" stroke-width="2" d="M132,-647.697C132,-639.983 132,-630.712 132,-622.112"/>
<polygon fill="grey" stroke="grey" stroke-width="2" points="135.5,-622.104 132,-612.104 128.5,-622.104 135.5,-622.104"/>
</g>
<!-- 11 -->
<g id="node12" class="node"><title>11</title>
<path fill="none" stroke="#8fd856" stroke-width="2" stroke-dasharray="5,2" d="M251.5,-756C251.5,-756 200.5,-756 200.5,-756 194.5,-756 188.5,-750 188.5,-744 188.5,-744 188.5,-732 188.5,-732 188.5,-726 194.5,-720 200.5,-720 200.5,-720 251.5,-720 251.5,-720 257.5,-720 263.5,-726 263.5,-732 263.5,-732 263.5,-744 263.5,-744 263.5,-750 257.5,-756 251.5,-756"/>
<text text-anchor="middle" x="226" y="-741" font-family="sans" font-size="10.00">adjustFasta</text>
<text text-anchor="middle" x="226" y="-730" font-family="sans" font-size="10.00">sample: cau</text>
</g>
<!-- 11&#45;&gt;10 -->
<g id="edge10" class="edge"><title>11&#45;&gt;10</title>
<path fill="none" stroke="grey" stroke-width="2" d="M202.764,-719.697C190.812,-710.796 176.077,-699.823 163.153,-690.199"/>
<polygon fill="grey" stroke="grey" stroke-width="2" points="165.08,-687.27 154.969,-684.104 160.899,-692.884 165.08,-687.27"/>
</g>
<!-- 12&#45;&gt;6 -->
<g id="edge5" class="edge"><title>12&#45;&gt;6</title>
<path fill="none" stroke="grey" stroke-width="2" d="M132,-71.6966C132,-63.9827 132,-54.7125 132,-46.1124"/>
<polygon fill="grey" stroke="grey" stroke-width="2" points="135.5,-46.1043 132,-36.1043 128.5,-46.1044 135.5,-46.1043"/>
</g>
</g>
</svg>
